<?xml version="1.0" encoding="UTF-8"?>
<svg id="Layer_1" xmlns="http://www.w3.org/2000/svg" version="1.1" viewBox="0 0 1498.13 1690.02">
  <!-- Generator: Adobe Illustrator 29.2.1, SVG Export Plug-In . SVG Version: 2.1.0 Build 116)  -->
  <defs>
    <style>
      .st0 {
        fill: #3c82f6;
      }
    </style>
  </defs>
  <path class="st0" d="M749.07,0L0,432.47v864.95s678.68,391.84,678.68,391.84V351.29l-137.46,80.98-130.96,77.61-137.46,80.28v548.5l137.46,78.58v-284.11h130.96v518.04l-403.76-233.11V511.83S749.07,158.72,749.07,158.72l611.61,353.11v706.23l-405.51,234.12v-519.04h130.96v281.38l137.46-75.85v-548.5l-137.46-83.02v288.54h-130.96v-363.41l-137.46-84.38v1081.45h.42v260.68l680-392.6V432.47L749.07,0ZM410.26,795.68v-142.33l130.96-71.85v214.19h-130.96Z"/>
</svg>